solid OpenSCAD_Model
  facet normal -6.12303e-017 0 -1
    outer loop
      vertex -140 122 8.57224e-015
      vertex 0 290 0
      vertex 0 122 0
    endloop
  endfacet
  facet normal -6.12303e-017 0 -1
    outer loop
      vertex 0 290 0
      vertex -140 122 8.57224e-015
      vertex -140 290 8.57224e-015
    endloop
  endfacet
  facet normal 1 0 -6.12303e-017
    outer loop
      vertex 8.57224e-015 122 140
      vertex 0 290 0
      vertex 8.57224e-015 290 140
    endloop
  endfacet
  facet normal 1 0 -6.12303e-017
    outer loop
      vertex 0 290 0
      vertex 8.57224e-015 122 140
      vertex 0 122 0
    endloop
  endfacet
  facet normal 0 1 0
    outer loop
      vertex 8.57224e-015 290 140
      vertex -20 290 45
      vertex -20 290 140
    endloop
  endfacet
  facet normal 0 1 0
    outer loop
      vertex -20 290 45
      vertex -140 290 8.57224e-015
      vertex -121 290 45
    endloop
  endfacet
  facet normal 0 1 0
    outer loop
      vertex -20 290 45
      vertex 0 290 0
      vertex -140 290 8.57224e-015
    endloop
  endfacet
  facet normal 0 1 -0
    outer loop
      vertex 0 290 0
      vertex -20 290 45
      vertex 8.57224e-015 290 140
    endloop
  endfacet
  facet normal 0 1 -0
    outer loop
      vertex -121 290 45
      vertex -140 290 140
      vertex -121 290 140
    endloop
  endfacet
  facet normal 0 1 0
    outer loop
      vertex -140 290 140
      vertex -121 290 45
      vertex -140 290 8.57224e-015
    endloop
  endfacet
  facet normal -0 0 1
    outer loop
      vertex -140 252 21
      vertex -138 140 21
      vertex -138 252 21
    endloop
  endfacet
  facet normal 0 0 1
    outer loop
      vertex -138 140 21
      vertex -140 252 21
      vertex -140 140 21
    endloop
  endfacet
  facet normal 0 -1 0
    outer loop
      vertex -140 252 140
      vertex -138 252 138
      vertex -138 252 140
    endloop
  endfacet
  facet normal 0 -1 0
    outer loop
      vertex -138 252 138
      vertex -138 252 98
      vertex -130 252 138
    endloop
  endfacet
  facet normal 0 -1 0
    outer loop
      vertex -140 252 140
      vertex -138 252 98
      vertex -138 252 138
    endloop
  endfacet
  facet normal 0 -1 0
    outer loop
      vertex -140 252 21
      vertex -138 252 98
      vertex -140 252 140
    endloop
  endfacet
  facet normal 0 -1 -0
    outer loop
      vertex -138 252 98
      vertex -140 252 21
      vertex -138 252 21
    endloop
  endfacet
  facet normal 0 -1 -0
    outer loop
      vertex -130 252 138
      vertex -138 252 98
      vertex -130 252 98
    endloop
  endfacet
  facet normal -1 0 0
    outer loop
      vertex -138 252 21
      vertex -138 248 33
      vertex -138 252 98
    endloop
  endfacet
  facet normal -1 0 0
    outer loop
      vertex -138 252 21
      vertex -138 147 33
      vertex -138 248 33
    endloop
  endfacet
  facet normal -1 0 0
    outer loop
      vertex -138 140 21
      vertex -138 147 33
      vertex -138 252 21
    endloop
  endfacet
  facet normal -1 0 0
    outer loop
      vertex -138 140 140
      vertex -138 147 33
      vertex -138 140 21
    endloop
  endfacet
  facet normal -1 0 0
    outer loop
      vertex -138 147 33
      vertex -138 140 140
      vertex -138 147 140
    endloop
  endfacet
  facet normal -1 -0 0
    outer loop
      vertex -138 252 98
      vertex -138 248 33
      vertex -138 248 98
    endloop
  endfacet
  facet normal -1 0 0
    outer loop
      vertex -138 248 138
      vertex -138 252 140
      vertex -138 252 138
    endloop
  endfacet
  facet normal -1 -0 0
    outer loop
      vertex -138 252 140
      vertex -138 248 138
      vertex -138 248 140
    endloop
  endfacet
  facet normal 0 1 -0
    outer loop
      vertex -138 140 21
      vertex -140 140 140
      vertex -138 140 140
    endloop
  endfacet
  facet normal 0 1 0
    outer loop
      vertex -140 140 140
      vertex -138 140 21
      vertex -140 140 21
    endloop
  endfacet
  facet normal -0 0 1
    outer loop
      vertex -138 248 33
      vertex -134 147 33
      vertex -134 248 33
    endloop
  endfacet
  facet normal 0 0 1
    outer loop
      vertex -134 147 33
      vertex -138 248 33
      vertex -138 147 33
    endloop
  endfacet
  facet normal 0 -1 0
    outer loop
      vertex -138 248 33
      vertex -134 248 98
      vertex -138 248 98
    endloop
  endfacet
  facet normal 0 -1 -0
    outer loop
      vertex -134 248 98
      vertex -138 248 33
      vertex -134 248 33
    endloop
  endfacet
  facet normal 0 -1 0
    outer loop
      vertex -138 248 138
      vertex -134 248 140
      vertex -138 248 140
    endloop
  endfacet
  facet normal 0 -1 -0
    outer loop
      vertex -134 248 140
      vertex -138 248 138
      vertex -134 248 138
    endloop
  endfacet
  facet normal -1 0 0
    outer loop
      vertex -134 248 33
      vertex -134 220 79
      vertex -134 248 98
    endloop
  endfacet
  facet normal -1 0 0
    outer loop
      vertex -134 147 33
      vertex -134 220 79
      vertex -134 248 33
    endloop
  endfacet
  facet normal -1 -0 0
    outer loop
      vertex -134 220 79
      vertex -134 147 33
      vertex -134 164 79
    endloop
  endfacet
  facet normal -1 0 0
    outer loop
      vertex -134 147 140
      vertex -134 164 79
      vertex -134 147 33
    endloop
  endfacet
  facet normal -1 0 0
    outer loop
      vertex -134 164 79
      vertex -134 147 140
      vertex -134 164 140
    endloop
  endfacet
  facet normal -1 -0 0
    outer loop
      vertex -134 248 98
      vertex -134 220 79
      vertex -134 220 98
    endloop
  endfacet
  facet normal -1 0 0
    outer loop
      vertex -134 220 138
      vertex -134 248 140
      vertex -134 248 138
    endloop
  endfacet
  facet normal -1 -0 0
    outer loop
      vertex -134 248 140
      vertex -134 220 138
      vertex -134 220 140
    endloop
  endfacet
  facet normal 0 1 -0
    outer loop
      vertex -134 147 33
      vertex -138 147 140
      vertex -134 147 140
    endloop
  endfacet
  facet normal 0 1 0
    outer loop
      vertex -138 147 140
      vertex -134 147 33
      vertex -138 147 33
    endloop
  endfacet
  facet normal -0 0 1
    outer loop
      vertex -134 220 79
      vertex -121 164 79
      vertex -121 220 79
    endloop
  endfacet
  facet normal 0 0 1
    outer loop
      vertex -121 164 79
      vertex -134 220 79
      vertex -134 164 79
    endloop
  endfacet
  facet normal 0 -1 0
    outer loop
      vertex -134 220 98
      vertex -134 220 79
      vertex -130 220 98
    endloop
  endfacet
  facet normal 0 -1 0
    outer loop
      vertex -130 220 138
      vertex -134 220 140
      vertex -134 220 138
    endloop
  endfacet
  facet normal 0 -1 0
    outer loop
      vertex -134 220 140
      vertex -130 220 138
      vertex -121 220 140
    endloop
  endfacet
  facet normal 0 -1 0
    outer loop
      vertex -130 220 98
      vertex -121 220 140
      vertex -130 220 138
    endloop
  endfacet
  facet normal 0 -1 0
    outer loop
      vertex -121 220 79
      vertex -130 220 98
      vertex -134 220 79
    endloop
  endfacet
  facet normal 0 -1 0
    outer loop
      vertex -130 220 98
      vertex -121 220 79
      vertex -121 220 140
    endloop
  endfacet
  facet normal 0 1 -0
    outer loop
      vertex -121 164 79
      vertex -134 164 140
      vertex -121 164 140
    endloop
  endfacet
  facet normal 0 1 0
    outer loop
      vertex -134 164 140
      vertex -121 164 79
      vertex -134 164 79
    endloop
  endfacet
  facet normal 0 0 1
    outer loop
      vertex -130 252 98
      vertex -134 248 98
      vertex -130 220 98
    endloop
  endfacet
  facet normal -0 0 1
    outer loop
      vertex -138 252 98
      vertex -134 248 98
      vertex -130 252 98
    endloop
  endfacet
  facet normal 0 0 1
    outer loop
      vertex -134 248 98
      vertex -138 252 98
      vertex -138 248 98
    endloop
  endfacet
  facet normal 0 0 1
    outer loop
      vertex -130 220 98
      vertex -134 248 98
      vertex -134 220 98
    endloop
  endfacet
  facet normal 0 0 -1
    outer loop
      vertex -134 248 138
      vertex -130 220 138
      vertex -134 220 138
    endloop
  endfacet
  facet normal 0 0 -1
    outer loop
      vertex -130 220 138
      vertex -134 248 138
      vertex -130 252 138
    endloop
  endfacet
  facet normal 0 0 -1
    outer loop
      vertex -138 252 138
      vertex -134 248 138
      vertex -138 248 138
    endloop
  endfacet
  facet normal 0 0 -1
    outer loop
      vertex -134 248 138
      vertex -138 252 138
      vertex -130 252 138
    endloop
  endfacet
  facet normal -1 0 0
    outer loop
      vertex -130 220 98
      vertex -130 252 138
      vertex -130 252 98
    endloop
  endfacet
  facet normal -1 -0 0
    outer loop
      vertex -130 252 138
      vertex -130 220 98
      vertex -130 220 138
    endloop
  endfacet
  facet normal 0 0 1
    outer loop
      vertex -20 270 45
      vertex -10 276 45
      vertex -20 276 45
    endloop
  endfacet
  facet normal 0 0 1
    outer loop
      vertex -10 276 45
      vertex -20 270 45
      vertex -10 266 45
    endloop
  endfacet
  facet normal 0 0 1
    outer loop
      vertex -10 266 45
      vertex -20 270 45
      vertex -20 266 45
    endloop
  endfacet
  facet normal 0 0 1
    outer loop
      vertex -121 276 45
      vertex -20 276 45
      vertex -20 290 45
    endloop
  endfacet
  facet normal 0 0 1
    outer loop
      vertex -121 276 45
      vertex -20 290 45
      vertex -121 290 45
    endloop
  endfacet
  facet normal 0 0 1
    outer loop
      vertex -20 276 45
      vertex -121 276 45
      vertex -20 270 45
    endloop
  endfacet
  facet normal 0 0 1
    outer loop
      vertex -121 276 45
      vertex -121 270 45
      vertex -20 270 45
    endloop
  endfacet
  facet normal -0 0 1
    outer loop
      vertex -140 276 45
      vertex -121 270 45
      vertex -121 276 45
    endloop
  endfacet
  facet normal 0 0 1
    outer loop
      vertex -140 266 45
      vertex -121 270 45
      vertex -140 276 45
    endloop
  endfacet
  facet normal 0 0 1
    outer loop
      vertex -121 270 45
      vertex -140 266 45
      vertex -121 266 45
    endloop
  endfacet
  facet normal 0 1 -0
    outer loop
      vertex -121 266 45
      vertex -140 266 140
      vertex -121 266 140
    endloop
  endfacet
  facet normal 0 1 0
    outer loop
      vertex -140 266 140
      vertex -121 266 45
      vertex -140 266 45
    endloop
  endfacet
  facet normal 0 -1 0
    outer loop
      vertex -140 276 45
      vertex -121 276 140
      vertex -140 276 140
    endloop
  endfacet
  facet normal 0 -1 -0
    outer loop
      vertex -121 276 140
      vertex -140 276 45
      vertex -121 276 45
    endloop
  endfacet
  facet normal -1 0 0
    outer loop
      vertex -140 290 8.57224e-015
      vertex -140 276 45
      vertex -140 290 140
    endloop
  endfacet
  facet normal -1 0 0
    outer loop
      vertex -140 252 21
      vertex -140 276 45
      vertex -140 290 8.57224e-015
    endloop
  endfacet
  facet normal -1 0 0
    outer loop
      vertex -140 252 140
      vertex -140 266 45
      vertex -140 252 21
    endloop
  endfacet
  facet normal -1 -0 0
    outer loop
      vertex -140 276 45
      vertex -140 252 21
      vertex -140 266 45
    endloop
  endfacet
  facet normal -1 0 0
    outer loop
      vertex -140 122 8.57224e-015
      vertex -140 252 21
      vertex -140 290 8.57224e-015
    endloop
  endfacet
  facet normal -1 -0 0
    outer loop
      vertex -140 252 21
      vertex -140 122 8.57224e-015
      vertex -140 140 21
    endloop
  endfacet
  facet normal -1 0 0
    outer loop
      vertex -140 122 140
      vertex -140 140 21
      vertex -140 122 8.57224e-015
    endloop
  endfacet
  facet normal -1 0 0
    outer loop
      vertex -140 140 21
      vertex -140 122 140
      vertex -140 140 140
    endloop
  endfacet
  facet normal -1 -0 0
    outer loop
      vertex -140 290 140
      vertex -140 276 45
      vertex -140 276 140
    endloop
  endfacet
  facet normal -1 0 0
    outer loop
      vertex -140 266 45
      vertex -140 252 140
      vertex -140 266 140
    endloop
  endfacet
  facet normal 0 0 1
    outer loop
      vertex -20 270 20
      vertex -87 140 20
      vertex -20 122 20
    endloop
  endfacet
  facet normal -0 0 1
    outer loop
      vertex -121 270 20
      vertex -87 140 20
      vertex -20 270 20
    endloop
  endfacet
  facet normal 0 0 1
    outer loop
      vertex -87 140 20
      vertex -121 270 20
      vertex -121 140 20
    endloop
  endfacet
  facet normal 0 0 1
    outer loop
      vertex -20 122 20
      vertex -87 140 20
      vertex -87 122 20
    endloop
  endfacet
  facet normal -1 0 0
    outer loop
      vertex -20 270 20
      vertex -20 266 45
      vertex -20 270 45
    endloop
  endfacet
  facet normal -1 0 0
    outer loop
      vertex -20 122 20
      vertex -20 266 45
      vertex -20 270 20
    endloop
  endfacet
  facet normal -1 0 0
    outer loop
      vertex -20 122 140
      vertex -20 266 45
      vertex -20 122 20
    endloop
  endfacet
  facet normal -1 0 0
    outer loop
      vertex -20 266 45
      vertex -20 122 140
      vertex -20 266 140
    endloop
  endfacet
  facet normal -1 0 0
    outer loop
      vertex -20 276 45
      vertex -20 290 140
      vertex -20 290 45
    endloop
  endfacet
  facet normal -1 -0 0
    outer loop
      vertex -20 290 140
      vertex -20 276 45
      vertex -20 276 140
    endloop
  endfacet
  facet normal 0 -1 0
    outer loop
      vertex -121 270 20
      vertex -20 270 45
      vertex -121 270 45
    endloop
  endfacet
  facet normal 0 -1 -0
    outer loop
      vertex -20 270 45
      vertex -121 270 20
      vertex -20 270 20
    endloop
  endfacet
  facet normal 1 -0 0
    outer loop
      vertex -87 122 140
      vertex -87 140 20
      vertex -87 140 140
    endloop
  endfacet
  facet normal 1 0 0
    outer loop
      vertex -87 140 20
      vertex -87 122 140
      vertex -87 122 20
    endloop
  endfacet
  facet normal 0 1 -0
    outer loop
      vertex -87 140 20
      vertex -121 140 140
      vertex -87 140 140
    endloop
  endfacet
  facet normal 0 1 0
    outer loop
      vertex -121 140 140
      vertex -87 140 20
      vertex -121 140 20
    endloop
  endfacet
  facet normal 1 0 0
    outer loop
      vertex -121 164 140
      vertex -121 140 140
      vertex -121 164 79
    endloop
  endfacet
  facet normal 1 0 0
    outer loop
      vertex -121 220 79
      vertex -121 266 140
      vertex -121 220 140
    endloop
  endfacet
  facet normal 1 -0 0
    outer loop
      vertex -121 266 45
      vertex -121 270 20
      vertex -121 270 45
    endloop
  endfacet
  facet normal 1 0 0
    outer loop
      vertex -121 266 140
      vertex -121 220 79
      vertex -121 266 45
    endloop
  endfacet
  facet normal 1 0 0
    outer loop
      vertex -121 266 45
      vertex -121 220 79
      vertex -121 270 20
    endloop
  endfacet
  facet normal 1 0 0
    outer loop
      vertex -121 140 20
      vertex -121 220 79
      vertex -121 164 79
    endloop
  endfacet
  facet normal 1 0 0
    outer loop
      vertex -121 220 79
      vertex -121 140 20
      vertex -121 270 20
    endloop
  endfacet
  facet normal 1 0 0
    outer loop
      vertex -121 140 20
      vertex -121 164 79
      vertex -121 140 140
    endloop
  endfacet
  facet normal 1 -0 0
    outer loop
      vertex -121 276 140
      vertex -121 290 45
      vertex -121 290 140
    endloop
  endfacet
  facet normal 1 0 0
    outer loop
      vertex -121 290 45
      vertex -121 276 140
      vertex -121 276 45
    endloop
  endfacet
  facet normal -1 0 0
    outer loop
      vertex -10 266 45
      vertex -10 276 140
      vertex -10 276 45
    endloop
  endfacet
  facet normal -1 -0 0
    outer loop
      vertex -10 276 140
      vertex -10 266 45
      vertex -10 266 140
    endloop
  endfacet
  facet normal 0 1 -0
    outer loop
      vertex -10 266 45
      vertex -20 266 140
      vertex -10 266 140
    endloop
  endfacet
  facet normal 0 1 0
    outer loop
      vertex -20 266 140
      vertex -10 266 45
      vertex -20 266 45
    endloop
  endfacet
  facet normal 0 -1 0
    outer loop
      vertex -20 276 45
      vertex -10 276 140
      vertex -20 276 140
    endloop
  endfacet
  facet normal 0 -1 -0
    outer loop
      vertex -10 276 140
      vertex -20 276 45
      vertex -10 276 45
    endloop
  endfacet
  facet normal 0 0 1
    outer loop
      vertex -134 147 140
      vertex -121 164 140
      vertex -134 164 140
    endloop
  endfacet
  facet normal -0 0 1
    outer loop
      vertex -121 140 140
      vertex -87 122 140
      vertex -87 140 140
    endloop
  endfacet
  facet normal 0 0 1
    outer loop
      vertex -121 164 140
      vertex -134 147 140
      vertex -121 140 140
    endloop
  endfacet
  facet normal 0 0 1
    outer loop
      vertex -138 140 140
      vertex -134 147 140
      vertex -138 147 140
    endloop
  endfacet
  facet normal 0 0 1
    outer loop
      vertex -134 147 140
      vertex -138 140 140
      vertex -121 140 140
    endloop
  endfacet
  facet normal 0 0 1
    outer loop
      vertex -140 122 140
      vertex -121 140 140
      vertex -138 140 140
    endloop
  endfacet
  facet normal 0 0 1
    outer loop
      vertex -140 122 140
      vertex -138 140 140
      vertex -140 140 140
    endloop
  endfacet
  facet normal 0 0 1
    outer loop
      vertex -121 140 140
      vertex -140 122 140
      vertex -87 122 140
    endloop
  endfacet
  facet normal 0 0 1
    outer loop
      vertex -7 200 140
      vertex 8.57224e-015 290 140
      vertex -7 220 140
    endloop
  endfacet
  facet normal 0 0 1
    outer loop
      vertex -10 266 140
      vertex 8.57224e-015 290 140
      vertex -10 276 140
    endloop
  endfacet
  facet normal -0 0 1
    outer loop
      vertex -20 290 140
      vertex -10 276 140
      vertex 8.57224e-015 290 140
    endloop
  endfacet
  facet normal 0 0 1
    outer loop
      vertex -10 276 140
      vertex -20 290 140
      vertex -20 276 140
    endloop
  endfacet
  facet normal 0 0 1
    outer loop
      vertex 8.57224e-015 290 140
      vertex -7 200 140
      vertex 8.57224e-015 122 140
    endloop
  endfacet
  facet normal -0 0 1
    outer loop
      vertex -13 200 140
      vertex 8.57224e-015 122 140
      vertex -7 200 140
    endloop
  endfacet
  facet normal 0 0 1
    outer loop
      vertex -13 200 140
      vertex -20 122 140
      vertex 8.57224e-015 122 140
    endloop
  endfacet
  facet normal 0 0 1
    outer loop
      vertex -20 122 140
      vertex -13 200 140
      vertex -20 266 140
    endloop
  endfacet
  facet normal 0 0 1
    outer loop
      vertex 8.57224e-015 290 140
      vertex -10 266 140
      vertex -7 220 140
    endloop
  endfacet
  facet normal 0 0 1
    outer loop
      vertex -10 266 140
      vertex -13 220 140
      vertex -7 220 140
    endloop
  endfacet
  facet normal 0 0 1
    outer loop
      vertex -13 220 140
      vertex -20 266 140
      vertex -13 200 140
    endloop
  endfacet
  facet normal -0 0 1
    outer loop
      vertex -20 266 140
      vertex -13 220 140
      vertex -10 266 140
    endloop
  endfacet
  facet normal -0 0 1
    outer loop
      vertex -140 290 140
      vertex -121 276 140
      vertex -121 290 140
    endloop
  endfacet
  facet normal 0 0 1
    outer loop
      vertex -121 276 140
      vertex -140 290 140
      vertex -140 276 140
    endloop
  endfacet
  facet normal 0 0 1
    outer loop
      vertex -121 266 140
      vertex -134 248 140
      vertex -121 220 140
    endloop
  endfacet
  facet normal 0 0 1
    outer loop
      vertex -121 266 140
      vertex -138 252 140
      vertex -134 248 140
    endloop
  endfacet
  facet normal -0 0 1
    outer loop
      vertex -140 266 140
      vertex -138 252 140
      vertex -121 266 140
    endloop
  endfacet
  facet normal 0 0 1
    outer loop
      vertex -138 252 140
      vertex -140 266 140
      vertex -140 252 140
    endloop
  endfacet
  facet normal 0 0 1
    outer loop
      vertex -121 220 140
      vertex -134 248 140
      vertex -134 220 140
    endloop
  endfacet
  facet normal 0 0 1
    outer loop
      vertex -134 248 140
      vertex -138 252 140
      vertex -138 248 140
    endloop
  endfacet
  facet normal 0 -1 0
    outer loop
      vertex -110 122 80
      vertex -140 122 140
      vertex -120 122 80
    endloop
  endfacet
  facet normal 0 -1 0
    outer loop
      vertex -140 122 140
      vertex -120 122 60
      vertex -120 122 80
    endloop
  endfacet
  facet normal 0 -1 0
    outer loop
      vertex -120 122 60
      vertex -87 122 20
      vertex -110 122 60
    endloop
  endfacet
  facet normal 0 -1 0
    outer loop
      vertex 0 122 0
      vertex -87 122 20
      vertex -140 122 8.57224e-015
    endloop
  endfacet
  facet normal 0 -1 -0
    outer loop
      vertex -120 122 60
      vertex -140 122 8.57224e-015
      vertex -87 122 20
    endloop
  endfacet
  facet normal 0 -1 0
    outer loop
      vertex -140 122 8.57224e-015
      vertex -120 122 60
      vertex -140 122 140
    endloop
  endfacet
  facet normal 0 -1 0
    outer loop
      vertex -140 122 140
      vertex -110 122 80
      vertex -87 122 140
    endloop
  endfacet
  facet normal 0 -1 0
    outer loop
      vertex -87 122 20
      vertex -110 122 80
      vertex -110 122 60
    endloop
  endfacet
  facet normal 0 -1 0
    outer loop
      vertex -110 122 80
      vertex -87 122 20
      vertex -87 122 140
    endloop
  endfacet
  facet normal 0 -1 0
    outer loop
      vertex -20 122 20
      vertex 8.57224e-015 122 140
      vertex -20 122 140
    endloop
  endfacet
  facet normal 0 -1 0
    outer loop
      vertex -20 122 20
      vertex 0 122 0
      vertex 8.57224e-015 122 140
    endloop
  endfacet
  facet normal 0 -1 0
    outer loop
      vertex -87 122 20
      vertex 0 122 0
      vertex -20 122 20
    endloop
  endfacet
  facet normal -0 0 1
    outer loop
      vertex -120 128 60
      vertex -110 122 60
      vertex -110 128 60
    endloop
  endfacet
  facet normal 0 0 1
    outer loop
      vertex -110 122 60
      vertex -120 128 60
      vertex -120 122 60
    endloop
  endfacet
  facet normal 1 -0 0
    outer loop
      vertex -120 122 80
      vertex -120 128 60
      vertex -120 128 80
    endloop
  endfacet
  facet normal 1 0 0
    outer loop
      vertex -120 128 60
      vertex -120 122 80
      vertex -120 122 60
    endloop
  endfacet
  facet normal 0 0 -1
    outer loop
      vertex -120 122 80
      vertex -110 128 80
      vertex -110 122 80
    endloop
  endfacet
  facet normal -0 0 -1
    outer loop
      vertex -110 128 80
      vertex -120 122 80
      vertex -120 128 80
    endloop
  endfacet
  facet normal 0 -1 0
    outer loop
      vertex -120 128 60
      vertex -110 128 80
      vertex -120 128 80
    endloop
  endfacet
  facet normal 0 -1 -0
    outer loop
      vertex -110 128 80
      vertex -120 128 60
      vertex -110 128 60
    endloop
  endfacet
  facet normal -1 0 0
    outer loop
      vertex -110 122 60
      vertex -110 128 80
      vertex -110 128 60
    endloop
  endfacet
  facet normal -1 -0 0
    outer loop
      vertex -110 128 80
      vertex -110 122 60
      vertex -110 122 80
    endloop
  endfacet
  facet normal -1 0 0
    outer loop
      vertex -13 200 140
      vertex -13 220 150
      vertex -13 220 140
    endloop
  endfacet
  facet normal -1 -0 0
    outer loop
      vertex -13 220 150
      vertex -13 200 140
      vertex -13 200 150
    endloop
  endfacet
  facet normal -0 0 1
    outer loop
      vertex -13 220 150
      vertex -7 200 150
      vertex -7 220 150
    endloop
  endfacet
  facet normal 0 0 1
    outer loop
      vertex -7 200 150
      vertex -13 220 150
      vertex -13 200 150
    endloop
  endfacet
  facet normal 0 1 -0
    outer loop
      vertex -7 220 140
      vertex -13 220 150
      vertex -7 220 150
    endloop
  endfacet
  facet normal 0 1 0
    outer loop
      vertex -13 220 150
      vertex -7 220 140
      vertex -13 220 140
    endloop
  endfacet
  facet normal 1 -0 0
    outer loop
      vertex -7 200 150
      vertex -7 220 140
      vertex -7 220 150
    endloop
  endfacet
  facet normal 1 0 0
    outer loop
      vertex -7 220 140
      vertex -7 200 150
      vertex -7 200 140
    endloop
  endfacet
  facet normal 0 -1 0
    outer loop
      vertex -13 200 140
      vertex -7 200 150
      vertex -13 200 150
    endloop
  endfacet
  facet normal 0 -1 -0
    outer loop
      vertex -7 200 150
      vertex -13 200 140
      vertex -7 200 140
    endloop
  endfacet
endsolid OpenSCAD_Model
