solid OpenSCAD_Model
  facet normal -6.12303e-017 0 -1
    outer loop
      vertex -140 122 8.57224e-015
      vertex 0 290 0
      vertex 0 122 0
    endloop
  endfacet
  facet normal -6.12303e-017 0 -1
    outer loop
      vertex 0 290 0
      vertex -140 122 8.57224e-015
      vertex -140 290 8.57224e-015
    endloop
  endfacet
  facet normal 0 1 0
    outer loop
      vertex 8.57224e-015 290 140
      vertex -20 290 45
      vertex -20 290 140
    endloop
  endfacet
  facet normal 0 1 0
    outer loop
      vertex -20 290 45
      vertex -140 290 8.57224e-015
      vertex -121 290 45
    endloop
  endfacet
  facet normal 0 1 0
    outer loop
      vertex -20 290 45
      vertex 0 290 0
      vertex -140 290 8.57224e-015
    endloop
  endfacet
  facet normal 0 1 -0
    outer loop
      vertex 0 290 0
      vertex -20 290 45
      vertex 8.57224e-015 290 140
    endloop
  endfacet
  facet normal 0 1 -0
    outer loop
      vertex -121 290 45
      vertex -140 290 140
      vertex -121 290 140
    endloop
  endfacet
  facet normal 0 1 0
    outer loop
      vertex -140 290 140
      vertex -121 290 45
      vertex -140 290 8.57224e-015
    endloop
  endfacet
  facet normal 1 0 -6.12303e-017
    outer loop
      vertex 8.57224e-015 122 140
      vertex 0 290 0
      vertex 8.57224e-015 290 140
    endloop
  endfacet
  facet normal 1 0 -6.12303e-017
    outer loop
      vertex 0 290 0
      vertex 8.57224e-015 122 140
      vertex 0 122 0
    endloop
  endfacet
  facet normal -0 0 1
    outer loop
      vertex -121 270 20
      vertex -20 122 20
      vertex -20 270 20
    endloop
  endfacet
  facet normal 0 0 1
    outer loop
      vertex -20 122 20
      vertex -121 270 20
      vertex -121 122 20
    endloop
  endfacet
  facet normal 0 -1 0
    outer loop
      vertex -121 270 20
      vertex -20 270 45
      vertex -121 270 45
    endloop
  endfacet
  facet normal 0 -1 -0
    outer loop
      vertex -20 270 45
      vertex -121 270 20
      vertex -20 270 20
    endloop
  endfacet
  facet normal -1 0 0
    outer loop
      vertex -20 270 20
      vertex -20 266 45
      vertex -20 270 45
    endloop
  endfacet
  facet normal -1 0 0
    outer loop
      vertex -20 122 20
      vertex -20 266 45
      vertex -20 270 20
    endloop
  endfacet
  facet normal -1 0 0
    outer loop
      vertex -20 122 140
      vertex -20 266 45
      vertex -20 122 20
    endloop
  endfacet
  facet normal -1 0 0
    outer loop
      vertex -20 266 45
      vertex -20 122 140
      vertex -20 266 140
    endloop
  endfacet
  facet normal -1 0 0
    outer loop
      vertex -20 276 45
      vertex -20 290 140
      vertex -20 290 45
    endloop
  endfacet
  facet normal -1 -0 0
    outer loop
      vertex -20 290 140
      vertex -20 276 45
      vertex -20 276 140
    endloop
  endfacet
  facet normal 1 0 0
    outer loop
      vertex -121 171 140
      vertex -121 122 140
      vertex -121 171 90
    endloop
  endfacet
  facet normal 1 0 0
    outer loop
      vertex -121 246 136
      vertex -121 266 140
      vertex -121 246 140
    endloop
  endfacet
  facet normal 1 -0 0
    outer loop
      vertex -121 266 45
      vertex -121 270 20
      vertex -121 270 45
    endloop
  endfacet
  facet normal 1 0 0
    outer loop
      vertex -121 229 90
      vertex -121 266 140
      vertex -121 246 136
    endloop
  endfacet
  facet normal 1 0 0
    outer loop
      vertex -121 266 140
      vertex -121 229 90
      vertex -121 266 45
    endloop
  endfacet
  facet normal 1 0 0
    outer loop
      vertex -121 229 90
      vertex -121 246 136
      vertex -121 229 136
    endloop
  endfacet
  facet normal 1 -0 0
    outer loop
      vertex -121 171 90
      vertex -121 266 45
      vertex -121 229 90
    endloop
  endfacet
  facet normal 1 0 0
    outer loop
      vertex -121 266 45
      vertex -121 171 90
      vertex -121 270 20
    endloop
  endfacet
  facet normal 1 0 0
    outer loop
      vertex -121 171 90
      vertex -121 122 20
      vertex -121 270 20
    endloop
  endfacet
  facet normal 1 0 0
    outer loop
      vertex -121 122 20
      vertex -121 171 90
      vertex -121 122 140
    endloop
  endfacet
  facet normal 1 0 0
    outer loop
      vertex -121 284 139
      vertex -121 290 140
      vertex -121 284 140
    endloop
  endfacet
  facet normal 1 0 0
    outer loop
      vertex -121 290 140
      vertex -121 284 139
      vertex -121 290 45
    endloop
  endfacet
  facet normal 1 0 0
    outer loop
      vertex -121 276 45
      vertex -121 284 139
      vertex -121 276 139
    endloop
  endfacet
  facet normal 1 0 0
    outer loop
      vertex -121 284 139
      vertex -121 276 45
      vertex -121 290 45
    endloop
  endfacet
  facet normal 0 0 1
    outer loop
      vertex -20 270 45
      vertex -10 276 45
      vertex -20 276 45
    endloop
  endfacet
  facet normal 0 0 1
    outer loop
      vertex -10 276 45
      vertex -20 270 45
      vertex -10 266 45
    endloop
  endfacet
  facet normal 0 0 1
    outer loop
      vertex -10 266 45
      vertex -20 270 45
      vertex -20 266 45
    endloop
  endfacet
  facet normal 0 0 1
    outer loop
      vertex -121 276 45
      vertex -20 276 45
      vertex -20 290 45
    endloop
  endfacet
  facet normal 0 0 1
    outer loop
      vertex -121 276 45
      vertex -20 290 45
      vertex -121 290 45
    endloop
  endfacet
  facet normal 0 0 1
    outer loop
      vertex -20 276 45
      vertex -121 276 45
      vertex -20 270 45
    endloop
  endfacet
  facet normal 0 0 1
    outer loop
      vertex -121 276 45
      vertex -121 270 45
      vertex -20 270 45
    endloop
  endfacet
  facet normal -0 0 1
    outer loop
      vertex -140 276 45
      vertex -121 270 45
      vertex -121 276 45
    endloop
  endfacet
  facet normal 0 0 1
    outer loop
      vertex -140 266 45
      vertex -121 270 45
      vertex -140 276 45
    endloop
  endfacet
  facet normal 0 0 1
    outer loop
      vertex -121 270 45
      vertex -140 266 45
      vertex -121 266 45
    endloop
  endfacet
  facet normal -0 0 1
    outer loop
      vertex -140 284 139
      vertex -121 276 139
      vertex -121 284 139
    endloop
  endfacet
  facet normal 0 0 1
    outer loop
      vertex -121 276 139
      vertex -140 284 139
      vertex -140 276 139
    endloop
  endfacet
  facet normal 0 -1 0
    outer loop
      vertex -140 284 139
      vertex -121 284 140
      vertex -140 284 140
    endloop
  endfacet
  facet normal 0 -1 -0
    outer loop
      vertex -121 284 140
      vertex -140 284 139
      vertex -121 284 139
    endloop
  endfacet
  facet normal -1 0 0
    outer loop
      vertex -10 266 45
      vertex -10 276 140
      vertex -10 276 45
    endloop
  endfacet
  facet normal -1 -0 0
    outer loop
      vertex -10 276 140
      vertex -10 266 45
      vertex -10 266 140
    endloop
  endfacet
  facet normal 0 1 -0
    outer loop
      vertex -10 266 45
      vertex -20 266 140
      vertex -10 266 140
    endloop
  endfacet
  facet normal 0 1 0
    outer loop
      vertex -20 266 140
      vertex -10 266 45
      vertex -20 266 45
    endloop
  endfacet
  facet normal 0 -1 0
    outer loop
      vertex -20 276 45
      vertex -10 276 140
      vertex -20 276 140
    endloop
  endfacet
  facet normal 0 -1 -0
    outer loop
      vertex -10 276 140
      vertex -20 276 45
      vertex -10 276 45
    endloop
  endfacet
  facet normal 0 0 1
    outer loop
      vertex -127 140 140
      vertex -121 171 140
      vertex -127 171 140
    endloop
  endfacet
  facet normal 0 0 1
    outer loop
      vertex -121 171 140
      vertex -127 140 140
      vertex -121 122 140
    endloop
  endfacet
  facet normal 0 0 1
    outer loop
      vertex -140 122 140
      vertex -127 140 140
      vertex -140 140 140
    endloop
  endfacet
  facet normal 0 0 1
    outer loop
      vertex -127 140 140
      vertex -140 122 140
      vertex -121 122 140
    endloop
  endfacet
  facet normal 0 0 1
    outer loop
      vertex -7 200 140
      vertex 8.57224e-015 290 140
      vertex -7 220 140
    endloop
  endfacet
  facet normal 0 0 1
    outer loop
      vertex -10 266 140
      vertex 8.57224e-015 290 140
      vertex -10 276 140
    endloop
  endfacet
  facet normal -0 0 1
    outer loop
      vertex -20 290 140
      vertex -10 276 140
      vertex 8.57224e-015 290 140
    endloop
  endfacet
  facet normal 0 0 1
    outer loop
      vertex -10 276 140
      vertex -20 290 140
      vertex -20 276 140
    endloop
  endfacet
  facet normal 0 0 1
    outer loop
      vertex 8.57224e-015 290 140
      vertex -7 200 140
      vertex 8.57224e-015 122 140
    endloop
  endfacet
  facet normal -0 0 1
    outer loop
      vertex -13 200 140
      vertex 8.57224e-015 122 140
      vertex -7 200 140
    endloop
  endfacet
  facet normal 0 0 1
    outer loop
      vertex -13 200 140
      vertex -20 122 140
      vertex 8.57224e-015 122 140
    endloop
  endfacet
  facet normal 0 0 1
    outer loop
      vertex -20 122 140
      vertex -13 200 140
      vertex -20 266 140
    endloop
  endfacet
  facet normal 0 0 1
    outer loop
      vertex 8.57224e-015 290 140
      vertex -10 266 140
      vertex -7 220 140
    endloop
  endfacet
  facet normal 0 0 1
    outer loop
      vertex -10 266 140
      vertex -13 220 140
      vertex -7 220 140
    endloop
  endfacet
  facet normal 0 0 1
    outer loop
      vertex -13 220 140
      vertex -20 266 140
      vertex -13 200 140
    endloop
  endfacet
  facet normal -0 0 1
    outer loop
      vertex -20 266 140
      vertex -13 220 140
      vertex -10 266 140
    endloop
  endfacet
  facet normal -0 0 1
    outer loop
      vertex -140 290 140
      vertex -121 284 140
      vertex -121 290 140
    endloop
  endfacet
  facet normal 0 0 1
    outer loop
      vertex -121 284 140
      vertex -140 290 140
      vertex -140 284 140
    endloop
  endfacet
  facet normal 0 0 1
    outer loop
      vertex -121 266 140
      vertex -138 252 140
      vertex -121 246 140
    endloop
  endfacet
  facet normal -0 0 1
    outer loop
      vertex -140 266 140
      vertex -138 252 140
      vertex -121 266 140
    endloop
  endfacet
  facet normal 0 0 1
    outer loop
      vertex -138 252 140
      vertex -140 266 140
      vertex -140 252 140
    endloop
  endfacet
  facet normal 0 0 1
    outer loop
      vertex -121 246 140
      vertex -138 252 140
      vertex -138 246 140
    endloop
  endfacet
  facet normal 0 -1 0
    outer loop
      vertex -140 122 140
      vertex -135 122 80
      vertex -121 122 140
    endloop
  endfacet
  facet normal 0 -1 0
    outer loop
      vertex -140 122 140
      vertex -135 122 60
      vertex -135 122 80
    endloop
  endfacet
  facet normal 0 -1 0
    outer loop
      vertex -135 122 60
      vertex -121 122 20
      vertex -125 122 60
    endloop
  endfacet
  facet normal 0 -1 -0
    outer loop
      vertex -121 122 20
      vertex -140 122 8.57224e-015
      vertex -20 122 20
    endloop
  endfacet
  facet normal 0 -1 -0
    outer loop
      vertex -135 122 60
      vertex -140 122 8.57224e-015
      vertex -121 122 20
    endloop
  endfacet
  facet normal 0 -1 0
    outer loop
      vertex -140 122 8.57224e-015
      vertex -135 122 60
      vertex -140 122 140
    endloop
  endfacet
  facet normal 0 -1 0
    outer loop
      vertex -125 122 80
      vertex -121 122 140
      vertex -135 122 80
    endloop
  endfacet
  facet normal 0 -1 0
    outer loop
      vertex -121 122 20
      vertex -125 122 80
      vertex -125 122 60
    endloop
  endfacet
  facet normal 0 -1 0
    outer loop
      vertex -125 122 80
      vertex -121 122 20
      vertex -121 122 140
    endloop
  endfacet
  facet normal 0 -1 0
    outer loop
      vertex -20 122 20
      vertex 8.57224e-015 122 140
      vertex -20 122 140
    endloop
  endfacet
  facet normal 0 -1 0
    outer loop
      vertex -20 122 20
      vertex 0 122 0
      vertex 8.57224e-015 122 140
    endloop
  endfacet
  facet normal 0 -1 0
    outer loop
      vertex 0 122 0
      vertex -20 122 20
      vertex -140 122 8.57224e-015
    endloop
  endfacet
  facet normal -0 0 1
    outer loop
      vertex -135 128 60
      vertex -125 122 60
      vertex -125 128 60
    endloop
  endfacet
  facet normal 0 0 1
    outer loop
      vertex -125 122 60
      vertex -135 128 60
      vertex -135 122 60
    endloop
  endfacet
  facet normal 1 -0 0
    outer loop
      vertex -135 122 80
      vertex -135 128 60
      vertex -135 128 80
    endloop
  endfacet
  facet normal 1 0 0
    outer loop
      vertex -135 128 60
      vertex -135 122 80
      vertex -135 122 60
    endloop
  endfacet
  facet normal 0 0 -1
    outer loop
      vertex -135 122 80
      vertex -125 128 80
      vertex -125 122 80
    endloop
  endfacet
  facet normal -0 0 -1
    outer loop
      vertex -125 128 80
      vertex -135 122 80
      vertex -135 128 80
    endloop
  endfacet
  facet normal 0 -1 0
    outer loop
      vertex -135 128 60
      vertex -125 128 80
      vertex -135 128 80
    endloop
  endfacet
  facet normal 0 -1 -0
    outer loop
      vertex -125 128 80
      vertex -135 128 60
      vertex -125 128 60
    endloop
  endfacet
  facet normal -1 0 0
    outer loop
      vertex -125 122 60
      vertex -125 128 80
      vertex -125 128 60
    endloop
  endfacet
  facet normal -1 -0 0
    outer loop
      vertex -125 128 80
      vertex -125 122 60
      vertex -125 122 80
    endloop
  endfacet
  facet normal -0 0 1
    outer loop
      vertex -140 252 21
      vertex -138 140 21
      vertex -138 252 21
    endloop
  endfacet
  facet normal 0 0 1
    outer loop
      vertex -138 140 21
      vertex -140 252 21
      vertex -140 140 21
    endloop
  endfacet
  facet normal 0 -1 0
    outer loop
      vertex -140 252 21
      vertex -138 252 140
      vertex -140 252 140
    endloop
  endfacet
  facet normal 0 -1 -0
    outer loop
      vertex -138 252 140
      vertex -140 252 21
      vertex -138 252 21
    endloop
  endfacet
  facet normal -1 0 0
    outer loop
      vertex -138 252 21
      vertex -138 246 35
      vertex -138 252 140
    endloop
  endfacet
  facet normal -1 0 0
    outer loop
      vertex -138 140 21
      vertex -138 246 35
      vertex -138 252 21
    endloop
  endfacet
  facet normal -1 -0 0
    outer loop
      vertex -138 246 35
      vertex -138 140 21
      vertex -138 143 35
    endloop
  endfacet
  facet normal -1 0 0
    outer loop
      vertex -138 140 97
      vertex -138 143 35
      vertex -138 140 21
    endloop
  endfacet
  facet normal -1 0 0
    outer loop
      vertex -138 143 35
      vertex -138 140 97
      vertex -138 143 97
    endloop
  endfacet
  facet normal -1 -0 0
    outer loop
      vertex -138 252 140
      vertex -138 246 35
      vertex -138 246 140
    endloop
  endfacet
  facet normal 0 1 0
    outer loop
      vertex -138 140 97
      vertex -127 140 140
      vertex -127 140 97
    endloop
  endfacet
  facet normal 0 1 0
    outer loop
      vertex -127 140 140
      vertex -138 140 97
      vertex -140 140 140
    endloop
  endfacet
  facet normal 0 1 0
    outer loop
      vertex -140 140 21
      vertex -138 140 97
      vertex -138 140 21
    endloop
  endfacet
  facet normal 0 1 0
    outer loop
      vertex -138 140 97
      vertex -140 140 21
      vertex -140 140 140
    endloop
  endfacet
  facet normal -0 0 1
    outer loop
      vertex -138 246 35
      vertex -131 143 35
      vertex -131 246 35
    endloop
  endfacet
  facet normal 0 0 1
    outer loop
      vertex -131 143 35
      vertex -138 246 35
      vertex -138 143 35
    endloop
  endfacet
  facet normal -1 0 0
    outer loop
      vertex -131 246 35
      vertex -131 229 90
      vertex -131 246 136
    endloop
  endfacet
  facet normal -1 0 0
    outer loop
      vertex -131 246 35
      vertex -131 171 90
      vertex -131 229 90
    endloop
  endfacet
  facet normal -1 0 0
    outer loop
      vertex -131 143 35
      vertex -131 171 90
      vertex -131 246 35
    endloop
  endfacet
  facet normal -1 0 0
    outer loop
      vertex -131 143 97
      vertex -131 171 90
      vertex -131 143 35
    endloop
  endfacet
  facet normal -1 0 0
    outer loop
      vertex -131 171 90
      vertex -131 143 97
      vertex -131 171 97
    endloop
  endfacet
  facet normal -1 -0 0
    outer loop
      vertex -131 246 136
      vertex -131 229 90
      vertex -131 229 136
    endloop
  endfacet
  facet normal 0 1 -0
    outer loop
      vertex -131 143 35
      vertex -138 143 97
      vertex -131 143 97
    endloop
  endfacet
  facet normal 0 1 0
    outer loop
      vertex -138 143 97
      vertex -131 143 35
      vertex -138 143 35
    endloop
  endfacet
  facet normal 0 -1 0
    outer loop
      vertex -138 246 140
      vertex -131 246 136
      vertex -121 246 140
    endloop
  endfacet
  facet normal 0 -1 0
    outer loop
      vertex -138 246 35
      vertex -131 246 136
      vertex -138 246 140
    endloop
  endfacet
  facet normal 0 -1 -0
    outer loop
      vertex -131 246 136
      vertex -138 246 35
      vertex -131 246 35
    endloop
  endfacet
  facet normal 0 -1 -0
    outer loop
      vertex -121 246 140
      vertex -131 246 136
      vertex -121 246 136
    endloop
  endfacet
  facet normal -0 0 1
    outer loop
      vertex -131 229 90
      vertex -121 171 90
      vertex -121 229 90
    endloop
  endfacet
  facet normal 0 0 1
    outer loop
      vertex -121 171 90
      vertex -131 229 90
      vertex -131 171 90
    endloop
  endfacet
  facet normal 0 -1 0
    outer loop
      vertex -131 229 90
      vertex -121 229 136
      vertex -131 229 136
    endloop
  endfacet
  facet normal 0 -1 -0
    outer loop
      vertex -121 229 136
      vertex -131 229 90
      vertex -121 229 90
    endloop
  endfacet
  facet normal 0 1 0
    outer loop
      vertex -121 171 140
      vertex -127 171 97
      vertex -127 171 140
    endloop
  endfacet
  facet normal 0 1 -0
    outer loop
      vertex -121 171 90
      vertex -127 171 97
      vertex -121 171 140
    endloop
  endfacet
  facet normal 0 1 0
    outer loop
      vertex -131 171 90
      vertex -127 171 97
      vertex -121 171 90
    endloop
  endfacet
  facet normal 0 1 0
    outer loop
      vertex -127 171 97
      vertex -131 171 90
      vertex -131 171 97
    endloop
  endfacet
  facet normal 0 0 1
    outer loop
      vertex -131 143 97
      vertex -127 171 97
      vertex -131 171 97
    endloop
  endfacet
  facet normal 0 0 1
    outer loop
      vertex -127 171 97
      vertex -131 143 97
      vertex -127 140 97
    endloop
  endfacet
  facet normal 0 0 1
    outer loop
      vertex -138 140 97
      vertex -131 143 97
      vertex -138 143 97
    endloop
  endfacet
  facet normal 0 0 1
    outer loop
      vertex -131 143 97
      vertex -138 140 97
      vertex -127 140 97
    endloop
  endfacet
  facet normal -1 0 0
    outer loop
      vertex -127 140 97
      vertex -127 171 140
      vertex -127 171 97
    endloop
  endfacet
  facet normal -1 -0 0
    outer loop
      vertex -127 171 140
      vertex -127 140 97
      vertex -127 140 140
    endloop
  endfacet
  facet normal -0 0 1
    outer loop
      vertex -131 246 136
      vertex -121 229 136
      vertex -121 246 136
    endloop
  endfacet
  facet normal 0 0 1
    outer loop
      vertex -121 229 136
      vertex -131 246 136
      vertex -131 229 136
    endloop
  endfacet
  facet normal 0 -1 0
    outer loop
      vertex -140 276 45
      vertex -121 276 139
      vertex -140 276 139
    endloop
  endfacet
  facet normal 0 -1 -0
    outer loop
      vertex -121 276 139
      vertex -140 276 45
      vertex -121 276 45
    endloop
  endfacet
  facet normal 0 1 -0
    outer loop
      vertex -121 266 45
      vertex -140 266 140
      vertex -121 266 140
    endloop
  endfacet
  facet normal 0 1 0
    outer loop
      vertex -140 266 140
      vertex -121 266 45
      vertex -140 266 45
    endloop
  endfacet
  facet normal -1 0 0
    outer loop
      vertex -140 276 45
      vertex -140 290 140
      vertex -140 290 8.57224e-015
    endloop
  endfacet
  facet normal -1 0 0
    outer loop
      vertex -140 290 140
      vertex -140 276 45
      vertex -140 284 139
    endloop
  endfacet
  facet normal -1 0 0
    outer loop
      vertex -140 252 21
      vertex -140 276 45
      vertex -140 290 8.57224e-015
    endloop
  endfacet
  facet normal -1 0 0
    outer loop
      vertex -140 252 140
      vertex -140 266 45
      vertex -140 252 21
    endloop
  endfacet
  facet normal -1 -0 0
    outer loop
      vertex -140 276 45
      vertex -140 252 21
      vertex -140 266 45
    endloop
  endfacet
  facet normal -1 0 0
    outer loop
      vertex -140 122 8.57224e-015
      vertex -140 252 21
      vertex -140 290 8.57224e-015
    endloop
  endfacet
  facet normal -1 -0 0
    outer loop
      vertex -140 252 21
      vertex -140 122 8.57224e-015
      vertex -140 140 21
    endloop
  endfacet
  facet normal -1 0 0
    outer loop
      vertex -140 122 140
      vertex -140 140 21
      vertex -140 122 8.57224e-015
    endloop
  endfacet
  facet normal -1 0 0
    outer loop
      vertex -140 140 21
      vertex -140 122 140
      vertex -140 140 140
    endloop
  endfacet
  facet normal -1 -0 0
    outer loop
      vertex -140 290 140
      vertex -140 284 139
      vertex -140 284 140
    endloop
  endfacet
  facet normal -1 -0 0
    outer loop
      vertex -140 284 139
      vertex -140 276 45
      vertex -140 276 139
    endloop
  endfacet
  facet normal -1 0 0
    outer loop
      vertex -140 266 45
      vertex -140 252 140
      vertex -140 266 140
    endloop
  endfacet
  facet normal -1 0 0
    outer loop
      vertex -13 200 140
      vertex -13 220 145
      vertex -13 220 140
    endloop
  endfacet
  facet normal -1 -0 0
    outer loop
      vertex -13 220 145
      vertex -13 200 140
      vertex -13 200 145
    endloop
  endfacet
  facet normal -0 0 1
    outer loop
      vertex -13 220 145
      vertex -7 200 145
      vertex -7 220 145
    endloop
  endfacet
  facet normal 0 0 1
    outer loop
      vertex -7 200 145
      vertex -13 220 145
      vertex -13 200 145
    endloop
  endfacet
  facet normal 1 -0 0
    outer loop
      vertex -7 200 145
      vertex -7 220 140
      vertex -7 220 145
    endloop
  endfacet
  facet normal 1 0 0
    outer loop
      vertex -7 220 140
      vertex -7 200 145
      vertex -7 200 140
    endloop
  endfacet
  facet normal 0 -1 0
    outer loop
      vertex -13 200 140
      vertex -7 200 145
      vertex -13 200 145
    endloop
  endfacet
  facet normal 0 -1 -0
    outer loop
      vertex -7 200 145
      vertex -13 200 140
      vertex -7 200 140
    endloop
  endfacet
  facet normal 0 1 -0
    outer loop
      vertex -7 220 140
      vertex -13 220 145
      vertex -7 220 145
    endloop
  endfacet
  facet normal 0 1 0
    outer loop
      vertex -13 220 145
      vertex -7 220 140
      vertex -13 220 140
    endloop
  endfacet
endsolid OpenSCAD_Model
