solid OpenSCAD_Model
  facet normal -0 0 1
    outer loop
      vertex 0 10.4 24
      vertex 25 0 24
      vertex 25 10.4 24
    endloop
  endfacet
  facet normal 0 0 1
    outer loop
      vertex 25 0 24
      vertex 0 10.4 24
      vertex 0 0 24
    endloop
  endfacet
  facet normal 0 0 -1
    outer loop
      vertex 0 0 0
      vertex 25 10.4 0
      vertex 25 0 0
    endloop
  endfacet
  facet normal -0 0 -1
    outer loop
      vertex 25 10.4 0
      vertex 0 0 0
      vertex 0 10.4 0
    endloop
  endfacet
  facet normal 0 -1 0
    outer loop
      vertex 0 0 0
      vertex 25 0 24
      vertex 0 0 24
    endloop
  endfacet
  facet normal 0 -1 -0
    outer loop
      vertex 25 0 24
      vertex 0 0 0
      vertex 25 0 0
    endloop
  endfacet
  facet normal 1 -0 0
    outer loop
      vertex 25 0 24
      vertex 25 10.4 0
      vertex 25 10.4 24
    endloop
  endfacet
  facet normal 1 0 0
    outer loop
      vertex 25 10.4 0
      vertex 25 0 24
      vertex 25 0 0
    endloop
  endfacet
  facet normal 0 1 -0
    outer loop
      vertex 25 10.4 0
      vertex 0 10.4 24
      vertex 25 10.4 24
    endloop
  endfacet
  facet normal 0 1 0
    outer loop
      vertex 0 10.4 24
      vertex 25 10.4 0
      vertex 0 10.4 0
    endloop
  endfacet
  facet normal -1 0 0
    outer loop
      vertex 0 0 0
      vertex 0 10.4 24
      vertex 0 10.4 0
    endloop
  endfacet
  facet normal -1 -0 0
    outer loop
      vertex 0 10.4 24
      vertex 0 0 0
      vertex 0 0 24
    endloop
  endfacet
endsolid OpenSCAD_Model
