solid OpenSCAD_Model
  facet normal 0 -1 0
    outer loop
      vertex 80 0.118396 -140
      vertex 83.7674 0.118396 -138
      vertex 80 0.118396 -138
    endloop
  endfacet
  facet normal 0 -1 -0
    outer loop
      vertex 83.7674 0.118396 -138
      vertex 80 0.118396 -140
      vertex 83.7674 0.118396 -140
    endloop
  endfacet
  facet normal 0.770513 -0.637424 0
    outer loop
      vertex 123.738 18.9272 -138
      vertex 128.541 24.7329 -140
      vertex 128.541 24.7329 -138
    endloop
  endfacet
  facet normal 0.770513 -0.637424 0
    outer loop
      vertex 128.541 24.7329 -140
      vertex 123.738 18.9272 -138
      vertex 123.738 18.9272 -140
    endloop
  endfacet
  facet normal 0.587785 -0.809017 0
    outer loop
      vertex 112.15 9.34032 -140
      vertex 118.245 13.7692 -138
      vertex 112.15 9.34032 -138
    endloop
  endfacet
  facet normal 0.587785 -0.809017 0
    outer loop
      vertex 118.245 13.7692 -138
      vertex 112.15 9.34032 -140
      vertex 118.245 13.7692 -140
    endloop
  endfacet
  facet normal 0.951057 -0.309017 0
    outer loop
      vertex 135.787 37.9125 -138
      vertex 138.115 45.0786 -140
      vertex 138.115 45.0786 -138
    endloop
  endfacet
  facet normal 0.951057 -0.309017 0
    outer loop
      vertex 138.115 45.0786 -140
      vertex 135.787 37.9125 -138
      vertex 135.787 37.9125 -140
    endloop
  endfacet
  facet normal 0 0 -1
    outer loop
      vertex 80 122 -140
      vertex 140 60 -140
      vertex 139.527 52.48 -140
    endloop
  endfacet
  facet normal 0 0 -1
    outer loop
      vertex 80 122 -140
      vertex 139.527 52.48 -140
      vertex 138.115 45.0786 -140
    endloop
  endfacet
  facet normal 0 0 -1
    outer loop
      vertex 80 122 -140
      vertex 138.115 45.0786 -140
      vertex 135.787 37.9125 -140
    endloop
  endfacet
  facet normal 0 0 -1
    outer loop
      vertex 80 122 -140
      vertex 135.787 37.9125 -140
      vertex 132.578 31.0948 -140
    endloop
  endfacet
  facet normal 0 0 -1
    outer loop
      vertex 80 122 -140
      vertex 132.578 31.0948 -140
      vertex 128.541 24.7329 -140
    endloop
  endfacet
  facet normal 0 0 -1
    outer loop
      vertex 80 122 -140
      vertex 128.541 24.7329 -140
      vertex 123.738 18.9272 -140
    endloop
  endfacet
  facet normal 0 0 -1
    outer loop
      vertex 80 122 -140
      vertex 123.738 18.9272 -140
      vertex 118.245 13.7692 -140
    endloop
  endfacet
  facet normal 0 0 -1
    outer loop
      vertex 80 122 -140
      vertex 118.245 13.7692 -140
      vertex 112.15 9.34032 -140
    endloop
  endfacet
  facet normal 0 0 -1
    outer loop
      vertex 80 122 -140
      vertex 112.15 9.34032 -140
      vertex 105.547 5.71038 -140
    endloop
  endfacet
  facet normal 0 0 -1
    outer loop
      vertex 80 122 -140
      vertex 105.547 5.71038 -140
      vertex 98.541 2.93661 -140
    endloop
  endfacet
  facet normal 0 0 -1
    outer loop
      vertex 80 0.118396 -140
      vertex 98.541 2.93661 -140
      vertex 91.2429 1.06276 -140
    endloop
  endfacet
  facet normal 0 0 -1
    outer loop
      vertex 80 0.118396 -140
      vertex 91.2429 1.06276 -140
      vertex 83.7674 0.118396 -140
    endloop
  endfacet
  facet normal -0 0 -1
    outer loop
      vertex 98.541 2.93661 -140
      vertex 80 0.118396 -140
      vertex 80 122 -140
    endloop
  endfacet
  facet normal 0 0 -1
    outer loop
      vertex 140 60 -140
      vertex 80 122 -140
      vertex 140 122 -140
    endloop
  endfacet
  facet normal -0 0 1
    outer loop
      vertex 80 122 -138
      vertex 87 92.2834 -138
      vertex 87 122 -138
    endloop
  endfacet
  facet normal 0 0 1
    outer loop
      vertex 80 0.118396 -138
      vertex 87 92.2834 -138
      vertex 80 122 -138
    endloop
  endfacet
  facet normal 0 0 1
    outer loop
      vertex 87 92.2834 -138
      vertex 80 0.118396 -138
      vertex 83.7674 0.118396 -138
    endloop
  endfacet
  facet normal -0 0 1
    outer loop
      vertex 113.109 104.484 -138
      vertex 140 60 -138
      vertex 140 122 -138
    endloop
  endfacet
  facet normal -0 0 1
    outer loop
      vertex 107.995 99.0387 -138
      vertex 140 60 -138
      vertex 113.109 104.484 -138
    endloop
  endfacet
  facet normal -0 0 1
    outer loop
      vertex 101.688 95.0362 -138
      vertex 140 60 -138
      vertex 107.995 99.0387 -138
    endloop
  endfacet
  facet normal -0 0 1
    outer loop
      vertex 94.584 92.7278 -138
      vertex 140 60 -138
      vertex 101.688 95.0362 -138
    endloop
  endfacet
  facet normal 0 0 1
    outer loop
      vertex 140 60 -138
      vertex 94.584 92.7278 -138
      vertex 139.527 52.48 -138
    endloop
  endfacet
  facet normal 0 0 1
    outer loop
      vertex 139.527 52.48 -138
      vertex 94.584 92.7278 -138
      vertex 138.115 45.0786 -138
    endloop
  endfacet
  facet normal 0 0 1
    outer loop
      vertex 118.565 118.265 -138
      vertex 140 122 -138
      vertex 118.565 122 -138
    endloop
  endfacet
  facet normal 0 0 1
    outer loop
      vertex 116.707 111.03 -138
      vertex 140 122 -138
      vertex 118.565 118.265 -138
    endloop
  endfacet
  facet normal 0 0 1
    outer loop
      vertex 113.109 104.484 -138
      vertex 140 122 -138
      vertex 116.707 111.03 -138
    endloop
  endfacet
  facet normal 0 0 1
    outer loop
      vertex 138.115 45.0786 -138
      vertex 94.584 92.7278 -138
      vertex 135.787 37.9125 -138
    endloop
  endfacet
  facet normal 0 0 1
    outer loop
      vertex 135.787 37.9125 -138
      vertex 94.584 92.7278 -138
      vertex 132.578 31.0948 -138
    endloop
  endfacet
  facet normal 0 0 1
    outer loop
      vertex 132.578 31.0948 -138
      vertex 94.584 92.7278 -138
      vertex 128.541 24.7329 -138
    endloop
  endfacet
  facet normal -0 0 1
    outer loop
      vertex 87.1288 92.2588 -138
      vertex 128.541 24.7329 -138
      vertex 94.584 92.7278 -138
    endloop
  endfacet
  facet normal 0 0 1
    outer loop
      vertex 128.541 24.7329 -138
      vertex 87.1288 92.2588 -138
      vertex 123.738 18.9272 -138
    endloop
  endfacet
  facet normal 0 0 1
    outer loop
      vertex 123.738 18.9272 -138
      vertex 87.1288 92.2588 -138
      vertex 118.245 13.7692 -138
    endloop
  endfacet
  facet normal 0 0 1
    outer loop
      vertex 118.245 13.7692 -138
      vertex 87.1288 92.2588 -138
      vertex 112.15 9.34032 -138
    endloop
  endfacet
  facet normal 0 0 1
    outer loop
      vertex 112.15 9.34032 -138
      vertex 87.1288 92.2588 -138
      vertex 105.547 5.71038 -138
    endloop
  endfacet
  facet normal 0 0 1
    outer loop
      vertex 105.547 5.71038 -138
      vertex 87.1288 92.2588 -138
      vertex 98.541 2.93661 -138
    endloop
  endfacet
  facet normal 0 0 1
    outer loop
      vertex 98.541 2.93661 -138
      vertex 87.1288 92.2588 -138
      vertex 91.2429 1.06276 -138
    endloop
  endfacet
  facet normal 0 0 1
    outer loop
      vertex 83.7674 0.118396 -138
      vertex 87.1288 92.2588 -138
      vertex 87 92.2834 -138
    endloop
  endfacet
  facet normal 0 0 1
    outer loop
      vertex 87.1288 92.2588 -138
      vertex 83.7674 0.118396 -138
      vertex 91.2429 1.06276 -138
    endloop
  endfacet
  facet normal 0.125333 -0.992115 0
    outer loop
      vertex 83.7674 0.118396 -140
      vertex 91.2429 1.06276 -138
      vertex 83.7674 0.118396 -138
    endloop
  endfacet
  facet normal 0.125333 -0.992115 0
    outer loop
      vertex 91.2429 1.06276 -138
      vertex 83.7674 0.118396 -140
      vertex 91.2429 1.06276 -140
    endloop
  endfacet
  facet normal 0.24869 -0.968583 0
    outer loop
      vertex 91.2429 1.06276 -140
      vertex 98.541 2.93661 -138
      vertex 91.2429 1.06276 -138
    endloop
  endfacet
  facet normal 0.24869 -0.968583 0
    outer loop
      vertex 98.541 2.93661 -138
      vertex 91.2429 1.06276 -140
      vertex 98.541 2.93661 -140
    endloop
  endfacet
  facet normal 0.684547 -0.728968 0
    outer loop
      vertex 118.245 13.7692 -140
      vertex 123.738 18.9272 -138
      vertex 118.245 13.7692 -138
    endloop
  endfacet
  facet normal 0.684547 -0.728968 0
    outer loop
      vertex 123.738 18.9272 -138
      vertex 118.245 13.7692 -140
      vertex 123.738 18.9272 -140
    endloop
  endfacet
  facet normal 0.844328 -0.535827 0
    outer loop
      vertex 128.541 24.7329 -138
      vertex 132.578 31.0948 -140
      vertex 132.578 31.0948 -138
    endloop
  endfacet
  facet normal 0.844328 -0.535827 0
    outer loop
      vertex 132.578 31.0948 -140
      vertex 128.541 24.7329 -138
      vertex 128.541 24.7329 -140
    endloop
  endfacet
  facet normal 0.904827 -0.42578 0
    outer loop
      vertex 132.578 31.0948 -138
      vertex 135.787 37.9125 -140
      vertex 135.787 37.9125 -138
    endloop
  endfacet
  facet normal 0.904827 -0.42578 0
    outer loop
      vertex 135.787 37.9125 -140
      vertex 132.578 31.0948 -138
      vertex 132.578 31.0948 -140
    endloop
  endfacet
  facet normal 0.982287 -0.187382 0
    outer loop
      vertex 138.115 45.0786 -138
      vertex 139.527 52.48 -140
      vertex 139.527 52.48 -138
    endloop
  endfacet
  facet normal 0.982287 -0.187382 0
    outer loop
      vertex 139.527 52.48 -140
      vertex 138.115 45.0786 -138
      vertex 138.115 45.0786 -140
    endloop
  endfacet
  facet normal 0.998027 -0.06279 0
    outer loop
      vertex 139.527 52.48 -138
      vertex 140 60 -140
      vertex 140 60 -138
    endloop
  endfacet
  facet normal 0.998027 -0.06279 0
    outer loop
      vertex 140 60 -140
      vertex 139.527 52.48 -138
      vertex 139.527 52.48 -140
    endloop
  endfacet
  facet normal 0.368125 -0.929776 0
    outer loop
      vertex 98.541 2.93661 -140
      vertex 105.547 5.71038 -138
      vertex 98.541 2.93661 -138
    endloop
  endfacet
  facet normal 0.368125 -0.929776 0
    outer loop
      vertex 105.547 5.71038 -138
      vertex 98.541 2.93661 -140
      vertex 105.547 5.71038 -140
    endloop
  endfacet
  facet normal 0.481754 -0.876307 0
    outer loop
      vertex 105.547 5.71038 -140
      vertex 112.15 9.34032 -138
      vertex 105.547 5.71038 -138
    endloop
  endfacet
  facet normal 0.481754 -0.876307 0
    outer loop
      vertex 112.15 9.34032 -138
      vertex 105.547 5.71038 -140
      vertex 112.15 9.34032 -140
    endloop
  endfacet
  facet normal 1 -0 0
    outer loop
      vertex 140 60 -138
      vertex 140 122 -140
      vertex 140 122 -138
    endloop
  endfacet
  facet normal 1 0 0
    outer loop
      vertex 140 122 -140
      vertex 140 60 -138
      vertex 140 60 -140
    endloop
  endfacet
  facet normal -1 0 0
    outer loop
      vertex 80 0.118396 -140
      vertex 80 122 -138
      vertex 80 122 -140
    endloop
  endfacet
  facet normal -1 -0 0
    outer loop
      vertex 80 122 -138
      vertex 80 0.118396 -140
      vertex 80 0.118396 -138
    endloop
  endfacet
  facet normal 0 1 -0
    outer loop
      vertex 140 122 -140
      vertex 118.565 122 -138
      vertex 140 122 -138
    endloop
  endfacet
  facet normal 0 1 0
    outer loop
      vertex 80 122 -140
      vertex 118.565 122 -138
      vertex 140 122 -140
    endloop
  endfacet
  facet normal 0 1 0
    outer loop
      vertex 118.565 122 -138
      vertex 80 122 -140
      vertex 87 122 -138
    endloop
  endfacet
  facet normal 0 1 0
    outer loop
      vertex 87 122 -138
      vertex 80 122 -140
      vertex 80 122 -138
    endloop
  endfacet
  facet normal 0 1 -0
    outer loop
      vertex 118.565 122 -138
      vertex 87 122 -130
      vertex 118.565 122 -130
    endloop
  endfacet
  facet normal 0 1 0
    outer loop
      vertex 87 122 -130
      vertex 118.565 122 -138
      vertex 87 122 -138
    endloop
  endfacet
  facet normal -1 0 0
    outer loop
      vertex 87 92.2834 -138
      vertex 87 122 -130
      vertex 87 122 -138
    endloop
  endfacet
  facet normal -1 -0 0
    outer loop
      vertex 87 122 -130
      vertex 87 92.2834 -138
      vertex 87 92.2834 -130
    endloop
  endfacet
  facet normal 1 -0 0
    outer loop
      vertex 118.565 118.265 -130
      vertex 118.565 122 -138
      vertex 118.565 122 -130
    endloop
  endfacet
  facet normal 1 0 0
    outer loop
      vertex 118.565 122 -138
      vertex 118.565 118.265 -130
      vertex 118.565 118.265 -138
    endloop
  endfacet
  facet normal -0.18735 -0.982293 0
    outer loop
      vertex 87 92.2834 -138
      vertex 87.1288 92.2588 -130
      vertex 87 92.2834 -130
    endloop
  endfacet
  facet normal -0.18735 -0.982293 -0
    outer loop
      vertex 87.1288 92.2588 -130
      vertex 87 92.2834 -138
      vertex 87.1288 92.2588 -138
    endloop
  endfacet
  facet normal 0.728969 -0.684547 0
    outer loop
      vertex 107.995 99.0387 -130
      vertex 113.109 104.484 -138
      vertex 113.109 104.484 -130
    endloop
  endfacet
  facet normal 0.728969 -0.684547 0
    outer loop
      vertex 113.109 104.484 -138
      vertex 107.995 99.0387 -130
      vertex 107.995 99.0387 -138
    endloop
  endfacet
  facet normal 0.06279 -0.998027 0
    outer loop
      vertex 87.1288 92.2588 -138
      vertex 94.584 92.7278 -130
      vertex 87.1288 92.2588 -130
    endloop
  endfacet
  facet normal 0.06279 -0.998027 0
    outer loop
      vertex 94.584 92.7278 -130
      vertex 87.1288 92.2588 -138
      vertex 94.584 92.7278 -138
    endloop
  endfacet
  facet normal -0 0 1
    outer loop
      vertex 87 122 -130
      vertex 118.565 118.265 -130
      vertex 118.565 122 -130
    endloop
  endfacet
  facet normal 0 0 1
    outer loop
      vertex 118.565 118.265 -130
      vertex 87 122 -130
      vertex 116.707 111.03 -130
    endloop
  endfacet
  facet normal 0 0 1
    outer loop
      vertex 116.707 111.03 -130
      vertex 87 122 -130
      vertex 113.109 104.484 -130
    endloop
  endfacet
  facet normal 0 0 1
    outer loop
      vertex 113.109 104.484 -130
      vertex 87 122 -130
      vertex 107.995 99.0387 -130
    endloop
  endfacet
  facet normal 0 0 1
    outer loop
      vertex 107.995 99.0387 -130
      vertex 87 122 -130
      vertex 101.688 95.0362 -130
    endloop
  endfacet
  facet normal 0 0 1
    outer loop
      vertex 101.688 95.0362 -130
      vertex 87 122 -130
      vertex 94.584 92.7278 -130
    endloop
  endfacet
  facet normal 0 0 1
    outer loop
      vertex 94.584 92.7278 -130
      vertex 87 122 -130
      vertex 87.1288 92.2588 -130
    endloop
  endfacet
  facet normal 0 0 1
    outer loop
      vertex 87.1288 92.2588 -130
      vertex 87 122 -130
      vertex 87 92.2834 -130
    endloop
  endfacet
  facet normal 0.535827 -0.844328 0
    outer loop
      vertex 101.688 95.0362 -138
      vertex 107.995 99.0387 -130
      vertex 101.688 95.0362 -130
    endloop
  endfacet
  facet normal 0.535827 -0.844328 0
    outer loop
      vertex 107.995 99.0387 -130
      vertex 101.688 95.0362 -138
      vertex 107.995 99.0387 -138
    endloop
  endfacet
  facet normal 0.309017 -0.951056 0
    outer loop
      vertex 94.584 92.7278 -138
      vertex 101.688 95.0362 -130
      vertex 94.584 92.7278 -130
    endloop
  endfacet
  facet normal 0.309017 -0.951056 0
    outer loop
      vertex 101.688 95.0362 -130
      vertex 94.584 92.7278 -138
      vertex 101.688 95.0362 -138
    endloop
  endfacet
  facet normal 0.876307 -0.481754 0
    outer loop
      vertex 113.109 104.484 -130
      vertex 116.707 111.03 -138
      vertex 116.707 111.03 -130
    endloop
  endfacet
  facet normal 0.876307 -0.481754 0
    outer loop
      vertex 116.707 111.03 -138
      vertex 113.109 104.484 -130
      vertex 113.109 104.484 -138
    endloop
  endfacet
  facet normal 0.968583 -0.24869 0
    outer loop
      vertex 116.707 111.03 -130
      vertex 118.565 118.265 -138
      vertex 118.565 118.265 -130
    endloop
  endfacet
  facet normal 0.968583 -0.24869 0
    outer loop
      vertex 118.565 118.265 -138
      vertex 116.707 111.03 -130
      vertex 116.707 111.03 -138
    endloop
  endfacet
endsolid OpenSCAD_Model
