solid OpenSCAD_Model
  facet normal 1 -0 0
    outer loop
      vertex 168 -80 94
      vertex 168 -78 16
      vertex 168 -78 94
    endloop
  endfacet
  facet normal 1 0 0
    outer loop
      vertex 168 -78 16
      vertex 168 -80 94
      vertex 168 -80 16
    endloop
  endfacet
  facet normal -1 0 0
    outer loop
      vertex 221 -80 16
      vertex 221 -78 94
      vertex 221 -78 16
    endloop
  endfacet
  facet normal -1 -0 0
    outer loop
      vertex 221 -78 94
      vertex 221 -80 16
      vertex 221 -80 94
    endloop
  endfacet
  facet normal 0 -1 0
    outer loop
      vertex 180 -78 13
      vertex 209 -78 16
      vertex 180 -78 16
    endloop
  endfacet
  facet normal 0 -1 -0
    outer loop
      vertex 209 -78 16
      vertex 180 -78 13
      vertex 209 -78 13
    endloop
  endfacet
  facet normal 0 -1 0
    outer loop
      vertex 180 -78 16
      vertex 180 -78 94
      vertex 168 -78 94
    endloop
  endfacet
  facet normal 0 -1 0
    outer loop
      vertex 180 -78 94
      vertex 180 -78 16
      vertex 209 -78 94
    endloop
  endfacet
  facet normal 0 -1 0
    outer loop
      vertex 180 -78 16
      vertex 168 -78 94
      vertex 168 -78 16
    endloop
  endfacet
  facet normal 0 -1 0
    outer loop
      vertex 209 -78 16
      vertex 209 -78 94
      vertex 180 -78 16
    endloop
  endfacet
  facet normal 0 -1 0
    outer loop
      vertex 209 -78 94
      vertex 209 -78 16
      vertex 221 -78 94
    endloop
  endfacet
  facet normal 0 -1 -0
    outer loop
      vertex 221 -78 94
      vertex 209 -78 16
      vertex 221 -78 16
    endloop
  endfacet
  facet normal 0 -1 0
    outer loop
      vertex 180 -78 94
      vertex 209 -78 122
      vertex 180 -78 122
    endloop
  endfacet
  facet normal 0 -1 -0
    outer loop
      vertex 209 -78 122
      vertex 180 -78 94
      vertex 209 -78 94
    endloop
  endfacet
  facet normal -0 0 1
    outer loop
      vertex 168 -78 16
      vertex 180 -80 16
      vertex 180 -78 16
    endloop
  endfacet
  facet normal 0 0 1
    outer loop
      vertex 180 -80 16
      vertex 168 -78 16
      vertex 168 -80 16
    endloop
  endfacet
  facet normal -0 0 1
    outer loop
      vertex 209 -78 16
      vertex 221 -80 16
      vertex 221 -78 16
    endloop
  endfacet
  facet normal 0 0 1
    outer loop
      vertex 221 -80 16
      vertex 209 -78 16
      vertex 209 -80 16
    endloop
  endfacet
  facet normal 0 0 -1
    outer loop
      vertex 168 -80 94
      vertex 180 -78 94
      vertex 180 -80 94
    endloop
  endfacet
  facet normal -0 0 -1
    outer loop
      vertex 180 -78 94
      vertex 168 -80 94
      vertex 168 -78 94
    endloop
  endfacet
  facet normal 0 0 -1
    outer loop
      vertex 209 -80 94
      vertex 221 -78 94
      vertex 221 -80 94
    endloop
  endfacet
  facet normal -0 0 -1
    outer loop
      vertex 221 -78 94
      vertex 209 -80 94
      vertex 209 -78 94
    endloop
  endfacet
  facet normal 1 -0 0
    outer loop
      vertex 180 -80 16
      vertex 180 -78 13
      vertex 180 -78 16
    endloop
  endfacet
  facet normal 1 0 0
    outer loop
      vertex 180 -78 13
      vertex 180 -80 16
      vertex 180 -80 13
    endloop
  endfacet
  facet normal 1 -0 0
    outer loop
      vertex 180 -80 122
      vertex 180 -78 94
      vertex 180 -78 122
    endloop
  endfacet
  facet normal 1 0 0
    outer loop
      vertex 180 -78 94
      vertex 180 -80 122
      vertex 180 -80 94
    endloop
  endfacet
  facet normal -1 0 0
    outer loop
      vertex 209 -80 13
      vertex 209 -78 16
      vertex 209 -78 13
    endloop
  endfacet
  facet normal -1 -0 0
    outer loop
      vertex 209 -78 16
      vertex 209 -80 13
      vertex 209 -80 16
    endloop
  endfacet
  facet normal -1 0 0
    outer loop
      vertex 209 -80 94
      vertex 209 -78 122
      vertex 209 -78 94
    endloop
  endfacet
  facet normal -1 -0 0
    outer loop
      vertex 209 -78 122
      vertex 209 -80 94
      vertex 209 -80 122
    endloop
  endfacet
  facet normal -0 0 1
    outer loop
      vertex 180 -78 13
      vertex 209 -80 13
      vertex 209 -78 13
    endloop
  endfacet
  facet normal 0 0 1
    outer loop
      vertex 209 -80 13
      vertex 180 -78 13
      vertex 180 -80 13
    endloop
  endfacet
  facet normal 0 -1 0
    outer loop
      vertex 140 -80 122
      vertex 168 -80 94
      vertex 180 -80 122
    endloop
  endfacet
  facet normal 0 -1 0
    outer loop
      vertex 140 -80 10
      vertex 168 -80 94
      vertex 140 -80 122
    endloop
  endfacet
  facet normal 0 -1 0
    outer loop
      vertex 168 -80 16
      vertex 180 -80 13
      vertex 180 -80 16
    endloop
  endfacet
  facet normal 0 -1 -0
    outer loop
      vertex 168 -80 16
      vertex 140 -80 4.89843e-015
      vertex 180 -80 13
    endloop
  endfacet
  facet normal 0 -1 0
    outer loop
      vertex 140 -80 4.89843e-015
      vertex 168 -80 16
      vertex 140 -80 10
    endloop
  endfacet
  facet normal 0 -1 -0
    outer loop
      vertex 168 -80 94
      vertex 140 -80 10
      vertex 168 -80 16
    endloop
  endfacet
  facet normal 0 -1 -0
    outer loop
      vertex 180 -80 122
      vertex 168 -80 94
      vertex 180 -80 94
    endloop
  endfacet
  facet normal 0 -1 0
    outer loop
      vertex 209 -80 16
      vertex 209 -80 13
      vertex 221 -80 16
    endloop
  endfacet
  facet normal 0 -1 0
    outer loop
      vertex 221 -80 94
      vertex 209 -80 122
      vertex 209 -80 94
    endloop
  endfacet
  facet normal 0 -1 0
    outer loop
      vertex 209 -80 122
      vertex 221 -80 94
      vertex 235 -80 122
    endloop
  endfacet
  facet normal 0 -1 0
    outer loop
      vertex 235 -80 4.89843e-015
      vertex 221 -80 94
      vertex 221 -80 16
    endloop
  endfacet
  facet normal 0 -1 0
    outer loop
      vertex 235 -80 4.89843e-015
      vertex 180 -80 13
      vertex 140 -80 4.89843e-015
    endloop
  endfacet
  facet normal 0 -1 0
    outer loop
      vertex 221 -80 94
      vertex 235 -80 4.89843e-015
      vertex 235 -80 122
    endloop
  endfacet
  facet normal 0 -1 0
    outer loop
      vertex 209 -80 13
      vertex 235 -80 4.89843e-015
      vertex 221 -80 16
    endloop
  endfacet
  facet normal 0 -1 0
    outer loop
      vertex 180 -80 13
      vertex 235 -80 4.89843e-015
      vertex 209 -80 13
    endloop
  endfacet
  facet normal 1 -0 0
    outer loop
      vertex 235 -80 122
      vertex 235 0 0
      vertex 235 7.4701e-015 122
    endloop
  endfacet
  facet normal 1 0 0
    outer loop
      vertex 235 0 0
      vertex 235 -80 122
      vertex 235 -80 4.89843e-015
    endloop
  endfacet
  facet normal 0 1 -6.12303e-017
    outer loop
      vertex 235 0 0
      vertex 140 7.4701e-015 122
      vertex 235 7.4701e-015 122
    endloop
  endfacet
  facet normal 0 1 -6.12303e-017
    outer loop
      vertex 140 7.4701e-015 122
      vertex 235 0 0
      vertex 140 0 0
    endloop
  endfacet
  facet normal 0 -6.12303e-017 -1
    outer loop
      vertex 140 -80 4.89843e-015
      vertex 235 0 0
      vertex 235 -80 4.89843e-015
    endloop
  endfacet
  facet normal -0 -6.12303e-017 -1
    outer loop
      vertex 235 0 0
      vertex 140 -80 4.89843e-015
      vertex 140 0 0
    endloop
  endfacet
  facet normal 0 0 1
    outer loop
      vertex 215 -60 122
      vertex 180 -78 122
      vertex 209 -78 122
    endloop
  endfacet
  facet normal -0 0 1
    outer loop
      vertex 140 -60 122
      vertex 180 -78 122
      vertex 215 -60 122
    endloop
  endfacet
  facet normal 0 0 1
    outer loop
      vertex 140 -80 122
      vertex 180 -78 122
      vertex 140 -60 122
    endloop
  endfacet
  facet normal 0 0 1
    outer loop
      vertex 180 -78 122
      vertex 140 -80 122
      vertex 180 -80 122
    endloop
  endfacet
  facet normal 0 0 1
    outer loop
      vertex 235 7.4701e-015 122
      vertex 215 -20 122
      vertex 235 -80 122
    endloop
  endfacet
  facet normal 0 0 1
    outer loop
      vertex 235 7.4701e-015 122
      vertex 189.9 -6.1 122
      vertex 215 -20 122
    endloop
  endfacet
  facet normal -0 0 1
    outer loop
      vertex 140 7.4701e-015 122
      vertex 189.9 -6.1 122
      vertex 235 7.4701e-015 122
    endloop
  endfacet
  facet normal 0 0 1
    outer loop
      vertex 170.1 -6.1 122
      vertex 140 7.4701e-015 122
      vertex 170.1 -12.9 122
    endloop
  endfacet
  facet normal 0 0 1
    outer loop
      vertex 189.9 -6.1 122
      vertex 140 7.4701e-015 122
      vertex 170.1 -6.1 122
    endloop
  endfacet
  facet normal -0 0 1
    outer loop
      vertex 215 -60 122
      vertex 235 -80 122
      vertex 215 -20 122
    endloop
  endfacet
  facet normal -0 0 1
    outer loop
      vertex 209 -78 122
      vertex 235 -80 122
      vertex 215 -60 122
    endloop
  endfacet
  facet normal 0 0 1
    outer loop
      vertex 235 -80 122
      vertex 209 -78 122
      vertex 209 -80 122
    endloop
  endfacet
  facet normal -0 0 1
    outer loop
      vertex 189.9 -12.9 122
      vertex 215 -20 122
      vertex 189.9 -6.1 122
    endloop
  endfacet
  facet normal -0 0 1
    outer loop
      vertex 170.1 -12.9 122
      vertex 215 -20 122
      vertex 189.9 -12.9 122
    endloop
  endfacet
  facet normal 0 0 1
    outer loop
      vertex 170.1 -12.9 122
      vertex 140 -20 122
      vertex 215 -20 122
    endloop
  endfacet
  facet normal 0 0 1
    outer loop
      vertex 140 -20 122
      vertex 170.1 -12.9 122
      vertex 140 7.4701e-015 122
    endloop
  endfacet
  facet normal 1 -0 0
    outer loop
      vertex 140 -87 122
      vertex 140 -80 10
      vertex 140 -80 122
    endloop
  endfacet
  facet normal 1 0 0
    outer loop
      vertex 140 -80 10
      vertex 140 -87 122
      vertex 140 -87 10
    endloop
  endfacet
  facet normal -1 0 0
    outer loop
      vertex 140 -20 10
      vertex 140 -7 50.1
      vertex 140 0 0
    endloop
  endfacet
  facet normal -1 -0 0
    outer loop
      vertex 140 -13 50.1
      vertex 140 -20 10
      vertex 140 -13 69.9
    endloop
  endfacet
  facet normal -1 -0 0
    outer loop
      vertex 140 -7 50.1
      vertex 140 -20 10
      vertex 140 -13 50.1
    endloop
  endfacet
  facet normal -1 0 0
    outer loop
      vertex 140 0 0
      vertex 140 -60 10
      vertex 140 -20 10
    endloop
  endfacet
  facet normal -1 0 0
    outer loop
      vertex 140 -80 4.89843e-015
      vertex 140 -60 10
      vertex 140 0 0
    endloop
  endfacet
  facet normal -1 -0 0
    outer loop
      vertex 140 -60 10
      vertex 140 -80 4.89843e-015
      vertex 140 -80 10
    endloop
  endfacet
  facet normal -1 0 0
    outer loop
      vertex 140 -7 50.1
      vertex 140 7.4701e-015 122
      vertex 140 0 0
    endloop
  endfacet
  facet normal -1 0 0
    outer loop
      vertex 140 -7 69.9
      vertex 140 7.4701e-015 122
      vertex 140 -7 50.1
    endloop
  endfacet
  facet normal -1 0 0
    outer loop
      vertex 140 -13 69.9
      vertex 140 7.4701e-015 122
      vertex 140 -7 69.9
    endloop
  endfacet
  facet normal -1 0 0
    outer loop
      vertex 140 -13 69.9
      vertex 140 -20 122
      vertex 140 7.4701e-015 122
    endloop
  endfacet
  facet normal -1 0 0
    outer loop
      vertex 140 -20 122
      vertex 140 -13 69.9
      vertex 140 -20 10
    endloop
  endfacet
  facet normal 0 1 -0
    outer loop
      vertex 215 -60 10
      vertex 140 -60 122
      vertex 215 -60 122
    endloop
  endfacet
  facet normal 0 1 0
    outer loop
      vertex 140 -60 122
      vertex 215 -60 10
      vertex 140 -60 10
    endloop
  endfacet
  facet normal -1 0 0
    outer loop
      vertex 215 -60 10
      vertex 215 -20 122
      vertex 215 -20 10
    endloop
  endfacet
  facet normal -1 -0 0
    outer loop
      vertex 215 -20 122
      vertex 215 -60 10
      vertex 215 -60 122
    endloop
  endfacet
  facet normal 0 -1 0
    outer loop
      vertex 140 -20 10
      vertex 215 -20 122
      vertex 140 -20 122
    endloop
  endfacet
  facet normal 0 -1 -0
    outer loop
      vertex 215 -20 122
      vertex 140 -20 10
      vertex 215 -20 10
    endloop
  endfacet
  facet normal -0 0 1
    outer loop
      vertex 140 -20 10
      vertex 215 -60 10
      vertex 215 -20 10
    endloop
  endfacet
  facet normal 0 0 1
    outer loop
      vertex 215 -60 10
      vertex 140 -20 10
      vertex 140 -60 10
    endloop
  endfacet
  facet normal 1 -0 0
    outer loop
      vertex 170.1 -12.9 122
      vertex 170.1 -6.1 117
      vertex 170.1 -6.1 122
    endloop
  endfacet
  facet normal 1 0 0
    outer loop
      vertex 170.1 -6.1 117
      vertex 170.1 -12.9 122
      vertex 170.1 -12.9 117
    endloop
  endfacet
  facet normal 0 1 -0
    outer loop
      vertex 189.9 -12.9 117
      vertex 170.1 -12.9 122
      vertex 189.9 -12.9 122
    endloop
  endfacet
  facet normal 0 1 0
    outer loop
      vertex 170.1 -12.9 122
      vertex 189.9 -12.9 117
      vertex 170.1 -12.9 117
    endloop
  endfacet
  facet normal -1 0 0
    outer loop
      vertex 189.9 -12.9 117
      vertex 189.9 -6.1 122
      vertex 189.9 -6.1 117
    endloop
  endfacet
  facet normal -1 -0 0
    outer loop
      vertex 189.9 -6.1 122
      vertex 189.9 -12.9 117
      vertex 189.9 -12.9 122
    endloop
  endfacet
  facet normal 0 -1 0
    outer loop
      vertex 170.1 -6.1 117
      vertex 189.9 -6.1 122
      vertex 170.1 -6.1 122
    endloop
  endfacet
  facet normal 0 -1 -0
    outer loop
      vertex 189.9 -6.1 122
      vertex 170.1 -6.1 117
      vertex 189.9 -6.1 117
    endloop
  endfacet
  facet normal -0 0 1
    outer loop
      vertex 170.1 -6.1 117
      vertex 189.9 -12.9 117
      vertex 189.9 -6.1 117
    endloop
  endfacet
  facet normal 0 0 1
    outer loop
      vertex 189.9 -12.9 117
      vertex 170.1 -6.1 117
      vertex 170.1 -12.9 117
    endloop
  endfacet
  facet normal -1 0 0
    outer loop
      vertex 132 -87 10
      vertex 132 -60 122
      vertex 132 -60 10
    endloop
  endfacet
  facet normal -1 -0 0
    outer loop
      vertex 132 -60 122
      vertex 132 -87 10
      vertex 132 -87 122
    endloop
  endfacet
  facet normal 0 -1 0
    outer loop
      vertex 132 -87 10
      vertex 140 -87 122
      vertex 132 -87 122
    endloop
  endfacet
  facet normal 0 -1 -0
    outer loop
      vertex 140 -87 122
      vertex 132 -87 10
      vertex 140 -87 10
    endloop
  endfacet
  facet normal -0 0 1
    outer loop
      vertex 132 -60 122
      vertex 140 -80 122
      vertex 140 -60 122
    endloop
  endfacet
  facet normal 0 0 1
    outer loop
      vertex 132 -87 122
      vertex 140 -80 122
      vertex 132 -60 122
    endloop
  endfacet
  facet normal 0 0 1
    outer loop
      vertex 140 -80 122
      vertex 132 -87 122
      vertex 140 -87 122
    endloop
  endfacet
  facet normal 0 1 -0
    outer loop
      vertex 140 -60 10
      vertex 132 -60 122
      vertex 140 -60 122
    endloop
  endfacet
  facet normal 0 1 0
    outer loop
      vertex 132 -60 122
      vertex 140 -60 10
      vertex 132 -60 10
    endloop
  endfacet
  facet normal 0 0 -1
    outer loop
      vertex 132 -87 10
      vertex 140 -80 10
      vertex 140 -87 10
    endloop
  endfacet
  facet normal 0 0 -1
    outer loop
      vertex 132 -60 10
      vertex 140 -80 10
      vertex 132 -87 10
    endloop
  endfacet
  facet normal 0 0 -1
    outer loop
      vertex 140 -80 10
      vertex 132 -60 10
      vertex 140 -60 10
    endloop
  endfacet
  facet normal -1 0 0
    outer loop
      vertex 135 -13 50.1
      vertex 135 -7 69.9
      vertex 135 -7 50.1
    endloop
  endfacet
  facet normal -1 -0 0
    outer loop
      vertex 135 -7 69.9
      vertex 135 -13 50.1
      vertex 135 -13 69.9
    endloop
  endfacet
  facet normal 0 -1 0
    outer loop
      vertex 135 -13 50.1
      vertex 140 -13 69.9
      vertex 135 -13 69.9
    endloop
  endfacet
  facet normal 0 -1 -0
    outer loop
      vertex 140 -13 69.9
      vertex 135 -13 50.1
      vertex 140 -13 50.1
    endloop
  endfacet
  facet normal 0 1 -0
    outer loop
      vertex 140 -7 50.1
      vertex 135 -7 69.9
      vertex 140 -7 69.9
    endloop
  endfacet
  facet normal 0 1 0
    outer loop
      vertex 135 -7 69.9
      vertex 140 -7 50.1
      vertex 135 -7 50.1
    endloop
  endfacet
  facet normal 0 0 -1
    outer loop
      vertex 135 -13 50.1
      vertex 140 -7 50.1
      vertex 140 -13 50.1
    endloop
  endfacet
  facet normal -0 0 -1
    outer loop
      vertex 140 -7 50.1
      vertex 135 -13 50.1
      vertex 135 -7 50.1
    endloop
  endfacet
  facet normal -0 0 1
    outer loop
      vertex 135 -7 69.9
      vertex 140 -13 69.9
      vertex 140 -7 69.9
    endloop
  endfacet
  facet normal 0 0 1
    outer loop
      vertex 140 -13 69.9
      vertex 135 -7 69.9
      vertex 135 -13 69.9
    endloop
  endfacet
endsolid OpenSCAD_Model
